<svg width="63" height="63" viewBox="0 0 63 63" fill="none" xmlns="http://www.w3.org/2000/svg">
<g id="fi_5403820">
<g id="11 - 20">
<g id="Research">
<path id="Vector" d="M56.4602 56.1537L51.3415 51.0192C52.5464 48.5009 52.8221 45.6376 52.1198 42.9356C51.4174 40.2336 49.7823 37.867 47.5035 36.2542C45.2247 34.6414 42.449 33.8863 39.6673 34.1225C36.8855 34.3587 34.2768 35.5708 32.3025 37.5447C30.3282 39.5185 29.1154 42.1269 28.8786 44.9086C28.6418 47.6903 29.3962 50.4662 31.0084 52.7454C32.6207 55.0245 34.9869 56.6602 37.6887 57.3632C40.3905 58.0662 43.2539 57.7912 45.7725 56.5868L50.9057 61.7056C51.2705 62.0706 51.7037 62.3603 52.1804 62.5579C52.6571 62.7556 53.1681 62.8574 53.6842 62.8576C54.2003 62.8578 54.7114 62.7563 55.1882 62.559C55.6651 62.3617 56.0985 62.0723 56.4635 61.7075C56.8286 61.3427 57.1182 60.9096 57.3159 60.4329C57.5135 59.9561 57.6154 59.4451 57.6155 58.9291C57.6157 58.413 57.5143 57.9019 57.3169 57.425C57.1196 56.9482 56.8303 56.5148 56.4655 56.1498L56.4602 56.1537ZM34.1897 52.4341C32.9049 51.1491 32.03 49.5121 31.6756 47.7299C31.3211 45.9477 31.5031 44.1005 32.1985 42.4217C32.894 40.743 34.0715 39.3082 35.5824 38.2987C37.0933 37.2892 38.8695 36.7504 40.6866 36.7504C42.5037 36.7504 44.28 37.2892 45.7908 38.2987C47.3017 39.3082 48.4792 40.743 49.1747 42.4217C49.8701 44.1005 50.0521 45.9477 49.6976 47.7299C49.3432 49.5121 48.4683 51.1491 47.1835 52.4341C45.4593 54.155 43.1227 55.1216 40.6866 55.1216C38.2505 55.1216 35.9139 54.155 34.1897 52.4341ZM54.5991 59.8497C54.3534 60.0926 54.0219 60.2288 53.6764 60.2288C53.331 60.2288 52.9994 60.0926 52.7537 59.8497L48.0537 55.1601C48.7432 54.6172 49.3661 53.9947 49.9095 53.3056L54.5991 58.0122C54.7208 58.1331 54.8173 58.2768 54.8832 58.4352C54.9491 58.5935 54.983 58.7634 54.983 58.9349C54.983 59.1064 54.9491 59.2762 54.8832 59.4346C54.8173 59.5929 54.7208 59.7367 54.5991 59.8576V59.8497Z" fill="white"/>
<path id="Vector_2" d="M32.8125 57.75H15.75C14.7057 57.75 13.7042 57.3352 12.9658 56.5968C12.2273 55.8583 11.8125 54.8568 11.8125 53.8125V9.18753C11.8125 8.14324 12.2273 7.14172 12.9658 6.4033C13.7042 5.66487 14.7057 5.25003 15.75 5.25003H38.5613C38.8348 5.25073 39.1076 5.28021 39.375 5.33797V13.125C39.375 14.1693 39.7898 15.1708 40.5283 15.9093C41.2667 16.6477 42.2682 17.0625 43.3125 17.0625H51.0864C51.1512 17.3428 51.1851 17.6293 51.1875 17.917V35.4375C51.1875 35.7856 51.3258 36.1195 51.5719 36.3656C51.8181 36.6117 52.1519 36.75 52.5 36.75C52.8481 36.75 53.1819 36.6117 53.4281 36.3656C53.6742 36.1195 53.8125 35.7856 53.8125 35.4375V17.917C53.8143 17.0576 53.6464 16.2063 53.3185 15.4119C52.9905 14.6175 52.509 13.8957 51.9015 13.2878L43.2128 4.55834C42.6045 3.94355 41.88 3.45599 41.0814 3.12407C40.2828 2.79214 39.4261 2.6225 38.5613 2.62503H15.75C14.0102 2.62711 12.3422 3.31919 11.1119 4.54944C9.88166 5.7797 9.18958 7.44768 9.1875 9.18753V53.8125C9.18958 55.5524 9.88166 57.2204 11.1119 58.4506C12.3422 59.6809 14.0102 60.3729 15.75 60.375H32.8125C33.1606 60.375 33.4944 60.2368 33.7406 59.9906C33.9867 59.7445 34.125 59.4106 34.125 59.0625C34.125 58.7144 33.9867 58.3806 33.7406 58.1345C33.4944 57.8883 33.1606 57.75 32.8125 57.75ZM49.3421 14.4375H43.3125C42.9644 14.4375 42.6306 14.2992 42.3844 14.0531C42.1383 13.807 42 13.4731 42 13.125V7.06128L49.3421 14.4375Z" fill="white"/>
<path id="Vector_3" d="M17.9902 16.6777H32.4277C32.7758 16.6777 33.1097 16.5395 33.3558 16.2933C33.602 16.0472 33.7402 15.7133 33.7402 15.3652C33.7402 15.0171 33.602 14.6833 33.3558 14.4372C33.1097 14.191 32.7758 14.0527 32.4277 14.0527H17.9902C17.6421 14.0527 17.3083 14.191 17.0622 14.4372C16.816 14.6833 16.6777 15.0171 16.6777 15.3652C16.6777 15.7133 16.816 16.0472 17.0622 16.2933C17.3083 16.5395 17.6421 16.6777 17.9902 16.6777Z" fill="white"/>
<path id="Vector_4" d="M44.625 22.3125H22.3125C21.9644 22.3125 21.6306 22.4508 21.3844 22.6969C21.1383 22.9431 21 23.2769 21 23.625C21 23.9731 21.1383 24.3069 21.3844 24.5531C21.6306 24.7992 21.9644 24.9375 22.3125 24.9375H44.625C44.9731 24.9375 45.3069 24.7992 45.5531 24.5531C45.7992 24.3069 45.9375 23.9731 45.9375 23.625C45.9375 23.2769 45.7992 22.9431 45.5531 22.6969C45.3069 22.4508 44.9731 22.3125 44.625 22.3125Z" fill="white"/>
<path id="Vector_5" d="M45.9375 30.1875C45.9375 29.8394 45.7992 29.5056 45.5531 29.2594C45.3069 29.0133 44.9731 28.875 44.625 28.875H18.375C18.0269 28.875 17.6931 29.0133 17.4469 29.2594C17.2008 29.5056 17.0625 29.8394 17.0625 30.1875C17.0625 30.5356 17.2008 30.8694 17.4469 31.1156C17.6931 31.3617 18.0269 31.5 18.375 31.5H44.625C44.9731 31.5 45.3069 31.3617 45.5531 31.1156C45.7992 30.8694 45.9375 30.5356 45.9375 30.1875Z" fill="white"/>
<path id="Vector_6" d="M27.5625 36.75C27.5625 36.4019 27.4242 36.0681 27.1781 35.8219C26.9319 35.5758 26.5981 35.4375 26.25 35.4375H18.375C18.0269 35.4375 17.6931 35.5758 17.4469 35.8219C17.2008 36.0681 17.0625 36.4019 17.0625 36.75C17.0625 37.0981 17.2008 37.4319 17.4469 37.6781C17.6931 37.9242 18.0269 38.0625 18.375 38.0625H26.25C26.5981 38.0625 26.9319 37.9242 27.1781 37.6781C27.4242 37.4319 27.5625 37.0981 27.5625 36.75Z" fill="white"/>
<path id="Vector_7" d="M18.375 44.625H23.625C23.9731 44.625 24.3069 44.4867 24.5531 44.2406C24.7992 43.9944 24.9375 43.6606 24.9375 43.3125C24.9375 42.9644 24.7992 42.6306 24.5531 42.3844C24.3069 42.1383 23.9731 42 23.625 42H18.375C18.0269 42 17.6931 42.1383 17.4469 42.3844C17.2008 42.6306 17.0625 42.9644 17.0625 43.3125C17.0625 43.6606 17.2008 43.9944 17.4469 44.2406C17.6931 44.4867 18.0269 44.625 18.375 44.625Z" fill="white"/>
<path id="Vector_8" d="M18.375 51.1875H24.9375C25.2856 51.1875 25.6194 51.0492 25.8656 50.8031C26.1117 50.5569 26.25 50.2231 26.25 49.875C26.25 49.5269 26.1117 49.1931 25.8656 48.9469C25.6194 48.7008 25.2856 48.5625 24.9375 48.5625H18.375C18.0269 48.5625 17.6931 48.7008 17.4469 48.9469C17.2008 49.1931 17.0625 49.5269 17.0625 49.875C17.0625 50.2231 17.2008 50.5569 17.4469 50.8031C17.6931 51.0492 18.0269 51.1875 18.375 51.1875Z" fill="white"/>
<path id="Vector_9" d="M40.6875 49.875C39.6432 49.875 38.6417 49.4602 37.9033 48.7217C37.1648 47.9833 36.75 46.9818 36.75 45.9375C36.75 45.5894 36.6117 45.2556 36.3656 45.0094C36.1194 44.7633 35.7856 44.625 35.4375 44.625C35.0894 44.625 34.7556 44.7633 34.5094 45.0094C34.2633 45.2556 34.125 45.5894 34.125 45.9375C34.1271 47.6773 34.8192 49.3453 36.0494 50.5756C37.2797 51.8058 38.9477 52.4979 40.6875 52.5C41.0356 52.5 41.3694 52.3617 41.6156 52.1156C41.8617 51.8694 42 51.5356 42 51.1875C42 50.8394 41.8617 50.5056 41.6156 50.2594C41.3694 50.0133 41.0356 49.875 40.6875 49.875Z" fill="white"/>
</g>
</g>
</g>
</svg>
